<svg xmlns="http://www.w3.org/2000/svg" xmlns:xlink="http://www.w3.org/1999/xlink" viewBox="0 0 750 500"><defs><style>.cls-1{fill:#fff;}.cls-2{fill:none;}.cls-3{isolation:isolate;}.cls-4,.cls-5,.cls-6{mix-blend-mode:multiply;}.cls-4{fill:url(#radial-gradient);}.cls-5{fill:url(#radial-gradient-2);}.cls-6{fill:url(#radial-gradient-3);}.cls-7{fill:url(#linear-gradient);}.cls-8{fill:url(#linear-gradient-2);}.cls-9{fill:url(#linear-gradient-3);}.cls-10{clip-path:url(#clip-path);}.cls-11{fill:#001e7a;}.cls-12{fill:url(#linear-gradient-4);}.cls-13{fill:url(#linear-gradient-5);}.cls-14{fill:url(#linear-gradient-6);}.cls-15{fill:#f1cf38;}.cls-16{clip-path:url(#clip-path-2);}.cls-17{fill:url(#linear-gradient-7);}.cls-18{fill:url(#linear-gradient-8);}</style><radialGradient id="radial-gradient" cx="166.28" cy="88.82" r="136.09" gradientTransform="translate(-4.57 394.37) scale(1.18 0.07)" gradientUnits="userSpaceOnUse"><stop offset="0" stop-color="#6b6b6b"/><stop offset="0.23" stop-color="#9b9b9b"/><stop offset="0.47" stop-color="#c6c6c6"/><stop offset="0.69" stop-color="#e5e5e5"/><stop offset="0.87" stop-color="#f8f8f8"/><stop offset="1" stop-color="#fff"/></radialGradient><radialGradient id="radial-gradient-2" cx="567.82" cy="265.19" r="94.7" gradientTransform="translate(260.09 390.92) scale(0.53 0.1)" xlink:href="#radial-gradient"/><radialGradient id="radial-gradient-3" cx="247.8" cy="-366.88" r="166.56" gradientTransform="translate(235.11 392.64) scale(0.55 0.07)" xlink:href="#radial-gradient"/><linearGradient id="linear-gradient" x1="379.71" y1="284.25" x2="379.71" y2="369" gradientUnits="userSpaceOnUse"><stop offset="0" stop-color="#fff"/><stop offset="0.02" stop-color="#f5f5f5"/><stop offset="0.18" stop-color="#b6b6b6"/><stop offset="0.29" stop-color="#8f8f8f"/><stop offset="0.35" stop-color="gray"/><stop offset="0.37" stop-color="#888"/><stop offset="0.41" stop-color="#9d9d9d"/><stop offset="0.45" stop-color="silver"/><stop offset="0.5" stop-color="#efefef"/><stop offset="0.52" stop-color="#fff"/><stop offset="0.61" stop-color="#fff"/><stop offset="0.64" stop-color="#e8e8e8"/><stop offset="0.71" stop-color="#a9a9a9"/><stop offset="0.77" stop-color="#828282"/><stop offset="0.79" stop-color="#737373"/><stop offset="0.82" stop-color="#787878"/><stop offset="0.86" stop-color="#888"/><stop offset="0.9" stop-color="#a2a2a2"/><stop offset="0.94" stop-color="#c5c5c5"/><stop offset="0.99" stop-color="#f3f3f3"/><stop offset="1" stop-color="#fff"/></linearGradient><linearGradient id="linear-gradient-2" x1="198.88" y1="199.04" x2="551.74" y2="199.04" gradientUnits="userSpaceOnUse"><stop offset="0.03" stop-color="#020202"/><stop offset="1"/></linearGradient><linearGradient id="linear-gradient-3" x1="162.47" y1="301.39" x2="585.64" y2="301.39" gradientUnits="userSpaceOnUse"><stop offset="0" stop-color="#fff"/><stop offset="0.19" stop-color="#dedede"/><stop offset="0.3" stop-color="#cfcfcf"/><stop offset="0.47" stop-color="#e6e6e6"/><stop offset="0.67" stop-color="#fff"/><stop offset="1" stop-color="#fff"/></linearGradient><clipPath id="clip-path"><rect class="cls-1" x="209.65" y="88.75" width="331.32" height="185.09"/></clipPath><linearGradient id="linear-gradient-4" x1="84.27" y1="320.24" x2="307.94" y2="320.24" xlink:href="#linear-gradient-2"/><linearGradient id="linear-gradient-5" x1="196.1" y1="406.34" x2="196.1" y2="393.5" gradientUnits="userSpaceOnUse"><stop offset="0" stop-color="#fff"/><stop offset="0.17" stop-color="#e1e1e1"/><stop offset="0.43" stop-color="#bababa"/><stop offset="0.56" stop-color="#ababab"/><stop offset="0.56" stop-color="#b8b8b8"/><stop offset="0.58" stop-color="#d2d2d2"/><stop offset="0.59" stop-color="#e6e6e6"/><stop offset="0.61" stop-color="#f4f4f4"/><stop offset="0.64" stop-color="#fdfdfd"/><stop offset="0.67" stop-color="#fff"/><stop offset="0.84" stop-color="#fff"/><stop offset="0.86" stop-color="#e8e8e8"/><stop offset="0.93" stop-color="#a9a9a9"/><stop offset="0.98" stop-color="#828282"/><stop offset="1" stop-color="#737373"/></linearGradient><linearGradient id="linear-gradient-6" x1="196.1" y1="395.01" x2="196.1" y2="401.39" gradientUnits="userSpaceOnUse"><stop offset="0" stop-color="#fff"/><stop offset="0.13" stop-color="#e1e1e1"/><stop offset="0.32" stop-color="#bababa"/><stop offset="0.42" stop-color="#ababab"/><stop offset="0.48" stop-color="#afafaf"/><stop offset="0.53" stop-color="#bbb"/><stop offset="0.59" stop-color="#cecece"/><stop offset="0.64" stop-color="#e9e9e9"/><stop offset="0.67" stop-color="#fff"/><stop offset="0.84" stop-color="#fff"/><stop offset="0.86" stop-color="#e8e8e8"/><stop offset="0.93" stop-color="#a9a9a9"/><stop offset="0.98" stop-color="#828282"/><stop offset="1" stop-color="#737373"/></linearGradient><clipPath id="clip-path-2"><rect class="cls-2" x="90.14" y="253.22" width="211.92" height="134.04"/></clipPath><linearGradient id="linear-gradient-7" x1="503.39" y1="296.54" x2="636.81" y2="429.95" xlink:href="#linear-gradient-3"/><linearGradient id="linear-gradient-8" x1="504.51" y1="297.66" x2="635.33" y2="428.48" gradientTransform="translate(206.85 915.39) rotate(-90)" xlink:href="#linear-gradient-2"/></defs><g class="cls-3"><g id="BACKGROUND"><rect class="cls-1" x="-4.45" y="-0.93" width="750" height="500"/><ellipse class="cls-4" cx="191.65" cy="400.73" rx="160.57" ry="9.74"/><ellipse class="cls-5" cx="561.38" cy="416.32" rx="50.25" ry="9.07"/><ellipse class="cls-6" cx="370.86" cy="365.64" rx="91.25" ry="12.26"/></g><g id="OBJECTS"><path class="cls-7" d="M421.36,347.2h-.94l-5.62-59H344.61l-5.62,59h-.94l-12.82,13a4.94,4.94,0,0,0,3.51,8.41H430.67a4.94,4.94,0,0,0,3.51-8.41Z"/><rect class="cls-8" x="198.88" y="78.49" width="352.86" height="241.1" rx="8.72"/><path class="cls-9" d="M207.6,319.59H543a8.71,8.71,0,0,0,8.72-8.71v-27.7H198.88v27.7A8.71,8.71,0,0,0,207.6,319.59Z"/><rect class="cls-1" x="209.65" y="88.75" width="331.32" height="185.09"/><g class="cls-10"><path class="cls-11" d="M517.69,242.33q-134.45.1-268.88,0c-.92,0-1-.07-1-1s0-1.95,0-2.92c88.39-2.58,180.37,0,269.89-.88Z"/><path class="cls-11" d="M253.32,143q0-13.25,0-26.49c0-.66.23-.85.84-.85l33.9,0c.94,0,1.06.14,1.06,1.05s0,1.82,0,2.74-.13,1-1,1h-29c-1.15,0-1.14,0-1.14,1.19q0,6.61-.07,13.24c0,.8.1.93,1.06.93h24.58c1.31,0,1.34.07,1.26,1.34,0,.82,0,1.64,0,2.46s-.12,1-1.07,1q-12.33,0-24.67,0c-1.12,0-1.12,0-1.12,1.09q0,11.43-.06,22.84c0,.81.08.94.94.94,9.93,0,19.86,0,29.79,0,1.19,0,1.2,0,1.16,1.22,0,.88,0,1.76,0,2.65,0,.72-.32,1-1,1-11.18,0-22.35,0-33.53,0-1.94,0-1.94,0-1.94-2V143Z"/><path class="cls-11" d="M368.92,201.85v-25c0-.6.12-.85.82-.84,6.9.19,13.84-.14,20.72.27a14.78,14.78,0,0,1,11.23,9.19,19.18,19.18,0,0,1,1,8.78c-.78,3.83-2,7.77-5,10.46-3.12,3.38-7,2.36-5.74,4.24,3.63,6.22,7.75,12.2,11.1,18.55-1.68.51-3.48.13-5.22.25a1.41,1.41,0,0,1-1.39-.78c-1.64-2.84-3.36-5.63-5-8.45s-3.28-5.67-5-8.43a6.53,6.53,0,0,1-1.08-4.77c-.05-1.6-.18-2,1.65-1.89,3-.06,6.22-.42,8-3.2,4-5.74,3.66-15.43-3.49-18.51a8.62,8.62,0,0,0-3.07-.69c-4.44-.09-8.89,0-13.34-.1-.84,0-.83.45-.83,1.05q0,16.44,0,32.88c0,4,0,8,0,12,0,.69-.26.92-.91.92-1.24,0-2.49,0-3.74,0-.54,0-.73-.19-.73-.76q0-12.56,0-25.12Z"/><path class="cls-11" d="M344.51,143.05c0-8.8,0-17.6,0-26.4,0-.72.19-1,.92-1q16.95,0,33.89,0c.7,0,1,.22,1,.94,0,1,0,2,0,3,0,.69-.28.87-.94.87q-14.43,0-28.86,0c-1.3,0-1.32,0-1.33,1.28,0,4.41,0,8.83-.07,13.24,0,.66.32.85.9.84h24.66c1.43,0,1.43,0,1.41,1.39,0,.82,0,1.64,0,2.47s-.1,1-1,1c-8.22,0-16.44,0-24.66,0-1.19,0-1.23,0-1.23,1.23q0,10.82,0,21.64c0,2.07-.41,2,2,2q14.48,0,29,0c.94,0,1,.12,1,1.05s0,1.95,0,2.92c0,.58-.25.85-.81.85-11.23,0-22.47,0-33.7,0-2,0-2,0-2-1.95V143.05Z"/><path class="cls-11" d="M457.87,154c-5.39,0-10.78-.11-16.16.07-.68.06-1-.32-.68-.93,4.44-9.48,8.56-19.1,12.78-28.68,5.05-10,2.63-11.39,6.91-1.76,4.54,10.08,8.9,20.26,13.4,30.36.34.76.21,1-.64,1H457.87Z"/><path class="cls-11" d="M470.86,227.71c-1.57,0-2.14.3-2.33-1.55-.19-1-.54-2-.78-3.07-.92-4.57-2.06-9.08-2.89-13.66-2-9.22-4-18.42-5.85-27.68-.47-2.06-1-4.1-1.45-6.17-.36-1.41-.29-3-.88-4.28a1.68,1.68,0,0,0-.36.55c-.34,1.63-.64,3.27-1,4.89-.42,1.92-.9,3.83-1.33,5.74-2,9.12-3.78,18.29-5.91,27.38C447,214.93,445.93,220,444.82,225c-.61,3.58-1.08,2.54-4.22,2.7-.58,0-.78-.27-.67-.8.24-1.12.47-2.25.71-3.37,1-4.52,2.13-9,3-13.57,1.84-7.76,3.32-15.6,5.14-23.37,2.1-9.48,4.3-18.94,6.24-28.46.17-1.16,1.19-1,2.11-1,.5,0,.75.18.86.71.61,2.41,1.19,4.82,1.63,7.26,1.78,7.73,3.31,15.51,5.11,23.23,2.08,8.93,3.66,18,5.94,26.85.57,2.94,1,5.9,1.8,8.79.24,1,.48,2,.71,3.08S471.42,227.57,470.86,227.71Z"/><path class="cls-11" d="M501.38,175.23A18.16,18.16,0,0,1,514,179.65a1,1,0,0,1,.15,1.51c-.7.88-1.41,1.75-2.12,2.63-.35.42-.68.53-1.12,0a13.41,13.41,0,0,0-5.3-3.25,34.4,34.4,0,0,0-5.28-.16c-8.15.89-10,12.17-2.39,15.28,6.48,3.63,15.88,4.94,18.38,13C521.34,228.2,497,235,485.81,221.16c-.43-.45-.3-.88.13-1.26l2.53-2.22c1.28-1.54,2.6,3.25,7.59,4.91,7.68,3.54,16.83-1.44,15.53-10.45-2-10.25-18.52-7.79-22.69-17.62C484.45,185.21,491.71,175.44,501.38,175.23Z"/><path class="cls-11" d="M389.84,115.68c1,.11,2.52-.43,3,.87.75,1.72,1.57,3.42,2.35,5.12,3.89,8.35,7.68,16.73,11.75,25,1.72,3.67,3.34,7.38,5.05,11.05.26.48.73.19.92-.15,1.88-4.23,3.91-8.4,5.86-12.6,4.47-9.57,9-19.09,13.37-28.71.69-1,3.39-.43,4.59-.56.72,0,.82.29.51.94-6.78,14.46-13.22,29.09-19.95,43.57-1.47,3.19-2.85,6.42-4.3,9.62-.3.53-.79.64-1.09,0-4.85-10.22-9.22-20.67-14.13-30.86-3.12-6.86-6.19-13.75-9.4-20.57C387.1,115.87,386.52,115.53,389.84,115.68Z"/><path class="cls-11" d="M434.75,227.72c-.86,0-1.71,0-2.56,0-.68,0-.85-.27-.68-.94,1.24-4.49,2.34-9,3.23-13.58,1.23-4.48,2.24-9,3.13-13.57,1.44-5.59,2.69-11.23,4-16.84,1.58-7.18,3.36-14.31,4.92-21.49,1.11-5.64.32-3.8,6.29-4.13.59,0,.86.29.73.87-.55,2.38-1.09,4.77-1.59,7.17-1.6,6.49-2.89,13-4.38,19.57-1.51,5.86-2.67,11.81-4.08,17.7-1.17,5.76-2.8,11.42-3.83,17.21-.55,2.2-1.17,4.39-1.57,6.63-.26,1.36-.28,1.41-1.72,1.39h-1.91Z"/><path class="cls-11" d="M478.14,227.72c-.91-.11-2.57.35-3.18-.41-1-3.72-1.8-7.53-2.64-11.3-2.7-11.89-5.33-23.78-8-35.67q-2.5-10.86-4.83-21.75c-.35-1.43-.35-1.42,1.17-1.42,1,.13,4.39-.42,4.76.43,2.56,10.32,4.71,20.73,7.26,31.05,1.89,8.76,4,17.45,6,26.2.95,4,1.93,8,2.69,12,.14.65-.12.9-.77.88-.82,0-1.64,0-2.46,0Z"/><path class="cls-11" d="M301,143q0-13.25,0-26.49c0-.57.15-.86.77-.84,1.06,0,2.13,0,3.19,0,.46,0,.82,0,.81.7-.23,16.07.05,32.16-.13,48.23-.07.66.15,1,.85.94,9.92,0,19.85,0,29.78,0,1.25,0,1.27,0,1.24,1.26,0,.91,0,1.83,0,2.74,0,.59-.26.83-.82.83H303.07c-2,0-2,0-2-2.05q0-12.65,0-25.3Z"/><path class="cls-11" d="M422,204.36v22.2c0,1.15,0,1.17-1.18,1.16s-2.2,0-3.29,0c-.63,0-.87-.25-.86-.88,0-1.3,0-2.61,0-3.92q0-20.46,0-40.93c0-1.05,0-1.05-1.08-1.05-3.65,0-7.31,0-11,.06-.52,0-.73-.19-.73-.68,0-1.22,0-2.44,0-3.66,0-.48.2-.7.74-.66,9.18.32,18.39,0,27.58.12.84.17,2.71-.64,2.63.74,0,1,0,2.07,0,3.11s-.06,1-1,1c-3.71,0-7.43,0-11.14,0-.52,0-.74.18-.72.68Z"/><path class="cls-11" d="M296.27,194.72c.25,6.84-.64,13.82.62,20.58a11.75,11.75,0,0,0,10.3,8.09.88.88,0,0,1,.94,1c0,1.09.05,2.19.07,3.28.16,1.66-5.08-.12-6-.36C289.88,223,290.85,212.56,291,201.71c-.05-8.25,0-16.5,0-24.74,0-.66.22-.95.9-.93,1.19,0,2.37,0,3.56,0,.82,0,1,.17,1,1v17.71Z"/><path class="cls-11" d="M327.26,193.9c0,5.36,0,10.72,0,16.08.15,5.13-1.07,10.51-5.21,13.92a17.24,17.24,0,0,1-4.93,3c-1,.41-6.64,2.49-6.69.76,0-1.15.06-2.31.08-3.46,0-.6.26-.84.88-.9,5.34-.46,10.23-4.85,10.36-10.35,0-12,.37-24.06.14-36.07-.07-.61.22-.87.76-.88,1.31,0,2.62,0,3.93,0,.56,0,.71.37.71.85C327.23,182.57,327.27,188.23,327.26,193.9Z"/><path class="cls-11" d="M348.91,222.84h13.87c1.13,0,1.26.14,1.24,1.27,0,.85,0,1.7,0,2.55s-.13,1.05-1.06,1.05H335c-1.07,0-1.11,0-1.12-1.13,0-.91,0-1.82,0-2.74s.08-1,1-1Z"/><path class="cls-11" d="M348.76,181q-7,0-14.05,0c-.53,0-.81-.13-.81-.7,0-1.18,0-2.37,0-3.56,0-.55.28-.71.81-.7,9.46,0,18.92.06,28.38,0,.75,0,.95.22,1,1s0,1.82,0,2.73-.19,1.17-1.19,1.17H348.76Z"/><path class="cls-11" d="M348.21,203.82c-4.5,0-9,0-13.51,0-.61,0-.83-.22-.82-.79,0-1.07,0-2.13,0-3.2,0-.92.12-1,1.06-1q13.34,0,26.67,0c.94,0,1.05.12,1.05,1s0,2,0,2.92-.07,1-1,1H348.21Z"/><path class="cls-11" d="M284.8,183.71a14.38,14.38,0,0,0-12.14-7.57q-8.45,0-16.9,0c-.8,0-.88.38-.88,1q0,12.42,0,24.84h0v24.76c0,.91.09,1,1,1,1.16,0,2.32,0,3.47,0,.62,0,.92-.15.92-.88,0-5.82,0-11.63,0-17.45,0-1.17,0-1.23,1.24-1.23,5.12-.19,10.31.53,15.36-.52C286.2,204.65,289.19,191.78,284.8,183.71Zm-5,15.19c-.07.14-.15.27-.22.4a7.23,7.23,0,0,1-3.27,3.1,11.78,11.78,0,0,1-5.16,1l-.71,0c-2.24.09-4.48.07-6.71.06h-2.24c-1.15,0-1.23-.09-1.23-1.26V182a2.41,2.41,0,0,1,.07-.77c.1-.25.34-.27.95-.27l.78,0c3.67.13,7.95-.55,11.59.19a9.94,9.94,0,0,1,3.53,1.38,8.37,8.37,0,0,1,2.61,2.76C282.27,189.44,281.9,194.71,279.79,198.9Z"/></g><rect class="cls-12" x="84.27" y="244.06" width="223.67" height="152.35" rx="5.33"/><path class="cls-13" d="M196.1,396.05H56.21a1,1,0,0,0-.34,2l8.4,2.95a47.66,47.66,0,0,0,15.78,2.69h232.1A47.61,47.61,0,0,0,327.93,401l8.41-2.95a1,1,0,0,0-.35-2Z"/><path class="cls-14" d="M213,400.66H179.21a4.61,4.61,0,0,1-4.61-4.61h43A4.61,4.61,0,0,1,213,400.66Z"/><rect class="cls-15" x="90.14" y="253.22" width="211.92" height="134.04"/><g class="cls-16"><path class="cls-11" d="M289.52,361.86q-89.08.08-178.19,0c-.61,0-.66-.05-.67-.66s0-1.29,0-1.93c58.58-1.71,119.54,0,178.86-.58Z"/><path class="cls-11" d="M114.32,296.06c0-5.86,0-11.71,0-17.56,0-.44.15-.57.56-.56h22.46c.63,0,.71.09.71.69s0,1.21,0,1.82-.09.67-.67.67H118.17c-.77,0-.76,0-.76.79,0,2.92,0,5.85,0,8.77,0,.53.06.62.7.62h16.29c.86,0,.89.05.84.89,0,.54,0,1.09,0,1.63s-.07.69-.7.69H118.15c-.74,0-.75,0-.75.72q0,7.57,0,15.14c0,.53.06.62.63.62h19.74c.79,0,.79,0,.77.8,0,.59,0,1.17,0,1.76s-.21.65-.66.64H115.62c-1.28,0-1.28,0-1.28-1.3V296.06Z"/><path class="cls-11" d="M190.93,335V318.45c0-.39.08-.56.54-.55,4.57.12,9.18-.1,13.74.17a9.81,9.81,0,0,1,7.44,6.09,12.86,12.86,0,0,1,.67,5.83c-.52,2.54-1.31,5.14-3.31,6.93-2.07,2.24-4.67,1.56-3.8,2.81,2.4,4.12,5.13,8.08,7.35,12.29a14.8,14.8,0,0,1-3.46.16.9.9,0,0,1-.92-.51c-1.09-1.88-2.22-3.73-3.34-5.6s-2.17-3.76-3.32-5.59a4.34,4.34,0,0,1-.72-3.16c0-1.06-.12-1.31,1.1-1.25,2,0,4.12-.28,5.29-2.12,2.67-3.8,2.43-10.23-2.31-12.27a5.94,5.94,0,0,0-2-.46c-2.94-.06-5.89,0-8.83-.06-.56,0-.55.3-.55.69v21.79c0,2.65,0,5.29,0,7.93,0,.46-.17.62-.6.61-.83,0-1.65,0-2.48,0-.36,0-.48-.13-.48-.51q0-8.32,0-16.64Z"/><path class="cls-11" d="M174.75,296.06c0-5.83,0-11.66,0-17.49,0-.48.13-.64.61-.63h22.46c.46,0,.67.15.65.63,0,.66,0,1.33,0,2,0,.47-.19.58-.62.58H178.71c-.86,0-.88,0-.88.85,0,2.92,0,5.85-.05,8.77,0,.44.21.56.6.56h16.34c.95,0,.95,0,.93.92,0,.55,0,1.09,0,1.64s-.07.64-.68.65H178.62c-.79,0-.82,0-.82.82q0,7.17,0,14.34c0,1.37-.28,1.33,1.31,1.33h19.19c.63,0,.67.08.65.7s0,1.29,0,1.93c0,.39-.17.57-.54.57-7.44,0-14.89,0-22.34,0-1.29,0-1.29,0-1.29-1.29V296.06Z"/><path class="cls-11" d="M249.88,303.34c-3.57,0-7.15-.08-10.71.05-.45,0-.64-.22-.45-.62,2.94-6.28,5.67-12.66,8.47-19,3.35-6.6,1.74-7.55,4.58-1.17,3,6.69,5.89,13.43,8.88,20.13.22.5.14.64-.43.64H249.88Z"/><path class="cls-11" d="M258.49,352.17c-1.05,0-1.42.2-1.55-1-.12-.69-.36-1.36-.52-2-.6-3-1.36-6-1.91-9.05-1.31-6.11-2.68-12.21-3.87-18.35-.32-1.36-.69-2.71-1-4.09a18.94,18.94,0,0,0-.59-2.83c-.08.12-.21.23-.24.37-.23,1.07-.42,2.16-.66,3.24-.28,1.27-.6,2.53-.88,3.8-1.34,6-2.51,12.12-3.92,18.14-.7,3.36-1.43,6.71-2.16,10.06-.41,2.38-.72,1.68-2.8,1.8-.38,0-.51-.18-.44-.54.15-.74.31-1.49.47-2.23.67-3,1.41-6,2-9,1.22-5.15,2.2-10.34,3.4-15.49,1.4-6.29,2.86-12.56,4.14-18.86.11-.77.79-.66,1.39-.66.34,0,.5.12.58.47.4,1.6.79,3.2,1.08,4.82,1.18,5.12,2.19,10.27,3.39,15.39,1.37,5.92,2.42,11.91,3.93,17.79.38,2,.67,3.91,1.19,5.83l.48,2C260.18,352.46,258.86,352.08,258.49,352.17Z"/><path class="cls-11" d="M278.71,317.39a12.06,12.06,0,0,1,8.34,2.93.63.63,0,0,1,.1,1c-.46.59-.94,1.17-1.41,1.74-.23.29-.45.35-.74,0a8.88,8.88,0,0,0-3.51-2.16,24,24,0,0,0-3.5-.11c-5.4.6-6.59,8.07-1.58,10.14,4.29,2.4,10.52,3.27,12.17,8.6,3.36,12.94-12.8,17.45-20.19,8.27-.28-.3-.2-.58.09-.83l1.68-1.47c.85-1,1.72,2.15,5,3.25,5.09,2.35,11.15-.95,10.29-6.93-1.34-6.79-12.27-5.16-15-11.67C267.49,324,272.3,317.53,278.71,317.39Z"/><path class="cls-11" d="M204.79,277.93c.69.07,1.67-.29,2,.57.5,1.15,1,2.27,1.57,3.4,2.57,5.53,5.08,11.09,7.78,16.56,1.14,2.43,2.21,4.89,3.35,7.33.17.31.48.12.6-.11,1.25-2.8,2.6-5.56,3.89-8.35,3-6.34,6-12.65,8.86-19,.46-.68,2.25-.29,3-.37.48,0,.54.19.34.62-4.49,9.58-8.76,19.28-13.22,28.87-1,2.12-1.89,4.26-2.85,6.37-.2.36-.53.43-.73,0-3.21-6.78-6.11-13.7-9.36-20.46-2.07-4.54-4.1-9.1-6.23-13.63C203,278.05,202.6,277.83,204.79,277.93Z"/><path class="cls-11" d="M234.55,352.18h-1.69c-.45,0-.56-.18-.45-.62.82-3,1.55-6,2.14-9,.81-3,1.48-6,2.07-9,1-3.7,1.78-7.44,2.67-11.16,1-4.76,2.22-9.48,3.26-14.24.73-3.74.21-2.51,4.17-2.74.39,0,.57.19.48.58-.36,1.58-.72,3.16-1,4.75-1.06,4.31-1.92,8.65-2.91,13-1,3.89-1.77,7.83-2.7,11.73-.77,3.82-1.86,7.57-2.54,11.41-.36,1.46-.77,2.91-1,4.39-.17.91-.19.94-1.14.93h-1.27Z"/><path class="cls-11" d="M263.31,352.18c-.6-.08-1.7.23-2.1-.27-.7-2.47-1.2-5-1.76-7.49-1.79-7.88-3.53-15.76-5.28-23.64q-1.66-7.2-3.2-14.41c-.24-.95-.24-.95.77-.95.65.09,2.91-.28,3.15.29,1.7,6.84,3.12,13.74,4.82,20.58,1.25,5.8,2.67,11.56,4,17.36.63,2.64,1.28,5.29,1.78,8,.09.43-.08.59-.51.58s-1.09,0-1.63,0Z"/><path class="cls-11" d="M145.93,296.05q0-8.79,0-17.56c0-.38.09-.57.51-.56.7,0,1.41,0,2.11,0,.3,0,.54,0,.54.46-.16,10.66,0,21.32-.09,32,0,.44.1.65.56.62,6.58,0,13.16,0,19.74,0,.83,0,.84,0,.82.83,0,.61,0,1.21,0,1.82,0,.39-.17.55-.54.55H147.29c-1.35,0-1.34,0-1.34-1.35V296.05Z"/><path class="cls-11" d="M226.08,336.7v14.71c0,.76,0,.77-.78.77h-2.18c-.42,0-.58-.17-.57-.58,0-.87,0-1.74,0-2.6V321.87c0-.69,0-.7-.71-.69l-7.27,0c-.34,0-.48-.13-.48-.45,0-.81,0-1.62,0-2.43,0-.31.13-.46.49-.44,6.08.21,12.18,0,18.27.09.56.11,1.8-.43,1.75.49,0,.68,0,1.37,0,2s0,.67-.64.67c-2.46,0-4.92,0-7.38,0-.35,0-.49.12-.48.45Z"/><path class="cls-11" d="M142.78,330.31c.17,4.53-.42,9.16.41,13.64a7.79,7.79,0,0,0,6.83,5.36.58.58,0,0,1,.62.65c0,.73,0,1.46.05,2.18.1,1.1-3.37-.08-4-.24-8.18-2.82-7.54-9.77-7.45-17,0-5.46,0-10.93,0-16.4,0-.43.14-.62.6-.61.78,0,1.57,0,2.36,0,.54,0,.63.11.63.64v11.74Z"/><path class="cls-11" d="M163.32,329.76c0,3.56,0,7.11,0,10.66s-.7,7-3.45,9.23a11.49,11.49,0,0,1-3.27,2c-.67.27-4.4,1.65-4.43.51,0-.77,0-1.53.05-2.3,0-.39.17-.55.58-.59,3.55-.31,6.79-3.21,6.87-6.86,0-8,.24-15.95.09-23.91,0-.4.15-.57.51-.58.87,0,1.73,0,2.6,0,.38,0,.47.24.47.56C163.3,322.26,163.33,326,163.32,329.76Z"/><path class="cls-11" d="M177.67,349h9.19c.75,0,.83.09.82.83,0,.57,0,1.13,0,1.7s-.09.69-.71.69h-18.5c-.71,0-.74,0-.75-.75v-1.81c0-.62.05-.67.64-.67Z"/><path class="cls-11" d="M177.57,321.21h-9.31c-.36,0-.54-.08-.54-.45,0-.79,0-1.58,0-2.36,0-.37.18-.47.54-.47,6.27,0,12.54,0,18.8,0,.5,0,.63.15.64.67s0,1.21,0,1.81-.12.78-.78.78h-9.32Z"/><path class="cls-11" d="M177.21,336.34h-9c-.4,0-.55-.14-.54-.52,0-.71,0-1.41,0-2.12s.08-.68.71-.68c5.89,0,11.78,0,17.67,0,.62,0,.69.07.69.69s0,1.29,0,1.94,0,.66-.64.66h-8.95Z"/><path class="cls-11" d="M135.18,323a9.52,9.52,0,0,0-8.05-5q-5.59,0-11.19,0c-.54,0-.59.25-.59.67q0,8.24,0,16.46h0q0,8.2,0,16.41c0,.6.07.66.66.66h2.3c.4,0,.61-.09.6-.58,0-3.85,0-7.71,0-11.56,0-.78,0-.82.82-.82,3.39-.12,6.83.35,10.18-.34C136.11,336.89,138.09,328.36,135.18,323Zm-3.32,10.07c-.05.09-.1.18-.14.27a4.91,4.91,0,0,1-2.17,2,7.78,7.78,0,0,1-3.42.67h-.47c-1.48.06-3,0-4.45,0h-1.49c-.75,0-.81-.06-.81-.84V321.87a1.48,1.48,0,0,1,0-.5c.06-.17.22-.18.63-.18l.52,0c2.43.09,5.26-.36,7.68.13a6.68,6.68,0,0,1,2.34.91,5.53,5.53,0,0,1,1.72,1.83A9.4,9.4,0,0,1,131.86,333.08Z"/></g><rect class="cls-17" x="527.66" y="287.53" width="66.93" height="133.48" rx="8.83"/><rect class="cls-18" x="495.67" y="322.09" width="130.9" height="64.35" rx="7.58" transform="translate(915.39 -206.85) rotate(90)"/><rect class="cls-1" x="498.63" y="325.06" width="124.97" height="58.41" rx="4.71" transform="translate(915.39 -206.85) rotate(90)"/><path class="cls-15" d="M585.46,364.68h-48c-.16,0-.17,0-.17-.18s0-.35,0-.52c15.78-.46,32.19,0,48.17-.16Z"/><path class="cls-15" d="M538.28,347v-4.73c0-.12,0-.15.15-.15h6.05c.17,0,.19,0,.19.19s0,.33,0,.49,0,.18-.18.18h-5.16c-.21,0-.21,0-.21.21,0,.79,0,1.58,0,2.36,0,.15,0,.17.19.17h4.39c.23,0,.23,0,.22.24s0,.29,0,.44,0,.18-.19.18h-4.4c-.2,0-.2,0-.2.2,0,1.36,0,2.71,0,4.07,0,.15,0,.17.17.17h5.31c.22,0,.22,0,.21.22s0,.31,0,.47-.06.18-.18.17h-6c-.35,0-.35,0-.35-.35V347Z"/><path class="cls-15" d="M558.91,357.46V353c0-.11,0-.15.15-.15,1.23,0,2.47,0,3.69.05a2.63,2.63,0,0,1,2,1.64,3.35,3.35,0,0,1,.18,1.57,3.25,3.25,0,0,1-.89,1.86c-.56.61-1.26.42-1,.76.65,1.11,1.39,2.18,2,3.31a4.12,4.12,0,0,1-.93,0,.22.22,0,0,1-.24-.14l-.9-1.5c-.31-.5-.59-1-.9-1.51a1.15,1.15,0,0,1-.19-.85c0-.28,0-.35.29-.34a1.57,1.57,0,0,0,1.43-.57c.72-1,.65-2.75-.62-3.3a1.51,1.51,0,0,0-.55-.12c-.8,0-1.59,0-2.38,0-.15,0-.15.08-.15.19v5.86c0,.72,0,1.43,0,2.14,0,.12,0,.16-.17.16H559c-.1,0-.13,0-.13-.13v-4.48Z"/><path class="cls-15" d="M554.55,347v-4.71c0-.13,0-.17.16-.17h6c.13,0,.18,0,.18.17a4.86,4.86,0,0,0,0,.54c0,.12-.05.15-.17.15h-5.15c-.23,0-.24,0-.24.23,0,.79,0,1.57,0,2.36,0,.12.06.15.16.15h4.4c.26,0,.26,0,.25.25v.44c0,.16,0,.17-.18.17h-4.41c-.21,0-.22,0-.22.22v3.86c0,.37-.07.36.35.36h5.17c.17,0,.18,0,.18.19s0,.34,0,.52,0,.15-.14.15h-6c-.34,0-.34,0-.34-.35V347Z"/><path class="cls-15" d="M574.78,348.92c-1,0-1.92,0-2.88,0-.12,0-.17-.05-.12-.16.79-1.7,1.53-3.41,2.28-5.12.9-1.78.47-2,1.23-.32s1.59,3.62,2.39,5.42c.06.14,0,.18-.11.18h-2.79Z"/><path class="cls-15" d="M577.1,362.07c-.28,0-.38.05-.41-.28s-.1-.36-.14-.54c-.17-.82-.37-1.62-.52-2.44-.35-1.65-.72-3.29-1-4.94-.09-.37-.19-.73-.26-1.1a5,5,0,0,0-.16-.77s-.05.07-.06.1l-.18.88-.24,1c-.36,1.63-.67,3.26-1.05,4.89-.19.9-.39,1.8-.59,2.7-.1.64-.19.46-.75.49q-.15,0-.12-.15c0-.2.09-.4.13-.6.18-.8.38-1.61.53-2.42.33-1.38.6-2.78.92-4.17.38-1.69.77-3.38,1.12-5.08,0-.21.21-.18.37-.18a.15.15,0,0,1,.16.13c.1.43.21.86.29,1.3.31,1.38.59,2.76.91,4.14.37,1.6.65,3.21,1.06,4.79.1.53.18,1.06.32,1.57,0,.19.09.37.13.55S577.2,362.05,577.1,362.07Z"/><path class="cls-15" d="M582.55,352.7a3.29,3.29,0,0,1,2.25.79.17.17,0,0,1,0,.27c-.12.16-.25.32-.38.47s-.12.1-.2,0a2.36,2.36,0,0,0-.94-.58,5.91,5.91,0,0,0-.94,0,1.43,1.43,0,0,0-.43,2.73c1.16.64,2.83.88,3.28,2.32.9,3.48-3.45,4.69-5.44,2.22a.14.14,0,0,1,0-.22l.46-.4c.22-.27.46.58,1.35.88a1.87,1.87,0,0,0,2.77-1.87c-.36-1.83-3.3-1.39-4-3.14A2.44,2.44,0,0,1,582.55,352.7Z"/><path class="cls-15" d="M562.64,342.08c.19,0,.45-.08.53.15l.42.92c.7,1.49,1.37,3,2.1,4.46.3.65.59,1.31.9,2,0,.08.13,0,.16,0,.34-.75.7-1.5,1-2.25.8-1.7,1.61-3.4,2.39-5.12.12-.18.6-.08.81-.1s.15.05.1.17c-1.21,2.58-2.36,5.19-3.57,7.77-.26.57-.5,1.15-.76,1.72-.06.09-.14.11-.2,0-.86-1.82-1.64-3.68-2.52-5.5-.56-1.23-1.1-2.46-1.68-3.67C562.15,342.11,562.05,342.05,562.64,342.08Z"/><path class="cls-15" d="M570.66,362.07h-.46c-.12,0-.15-.05-.12-.16.22-.81.42-1.61.58-2.43s.4-1.61.55-2.42c.26-1,.48-2,.72-3,.28-1.28.6-2.55.88-3.83.2-1,.06-.68,1.12-.74.11,0,.16,0,.13.16-.1.42-.19.85-.28,1.28-.29,1.16-.52,2.33-.78,3.49s-.48,2.11-.73,3.16-.5,2-.68,3.07c-.1.39-.21.78-.28,1.18s0,.25-.31.25Z"/><path class="cls-15" d="M578.4,362.07c-.16,0-.46.06-.57-.07-.18-.67-.32-1.34-.47-2q-.72-3.18-1.42-6.36c-.3-1.29-.59-2.59-.86-3.88-.07-.26-.07-.26.21-.26s.78-.07.85.08c.45,1.84.84,3.7,1.29,5.54.34,1.56.72,3.11,1.07,4.68.17.71.34,1.42.48,2.14,0,.11,0,.16-.14.16Z"/><path class="cls-15" d="M546.79,347v-4.73c0-.1,0-.15.14-.15h.57c.08,0,.14,0,.14.13,0,2.86,0,5.73,0,8.6,0,.12,0,.18.15.17h5.31c.23,0,.23,0,.22.22v.49c0,.11,0,.15-.14.15h-6c-.36,0-.36,0-.36-.37V347Z"/><path class="cls-15" d="M568.37,357.9v4c0,.2,0,.2-.21.2h-.58c-.11,0-.16,0-.16-.15s0-.47,0-.7v-7.31c0-.19,0-.19-.19-.19h-2c-.09,0-.13,0-.13-.12s0-.43,0-.65,0-.13.14-.12c1.63.06,3.28,0,4.92,0,.15,0,.48-.11.47.14s0,.37,0,.55,0,.18-.17.18h-2c-.09,0-.13,0-.12.12C568.37,355.2,568.38,356.55,568.37,357.9Z"/><path class="cls-15" d="M545.94,356.18a26.57,26.57,0,0,0,.11,3.68,2.11,2.11,0,0,0,1.84,1.44c.12,0,.17.06.17.18s0,.39,0,.58-.9,0-1.06-.06c-2.21-.76-2-2.63-2-4.57,0-1.47,0-2.94,0-4.42,0-.11,0-.16.16-.16h.64c.14,0,.17,0,.17.17v3.16Z"/><path class="cls-15" d="M551.47,356c0,.95,0,1.91,0,2.87a3,3,0,0,1-.93,2.48,3.07,3.07,0,0,1-.88.54c-.18.08-1.18.45-1.19.14s0-.41,0-.62,0-.15.16-.16a2,2,0,0,0,1.85-1.85c0-2.14.07-4.29,0-6.43,0-.11,0-.16.14-.16h.7c.1,0,.13.07.13.15C551.47,354,551.48,355,551.47,356Z"/><path class="cls-15" d="M555.34,361.2h2.47c.21,0,.23,0,.22.23v.45c0,.17,0,.19-.19.19h-5c-.19,0-.2,0-.2-.2v-.49c0-.17,0-.18.17-.18Z"/><path class="cls-15" d="M555.31,353.73H552.8c-.09,0-.14,0-.14-.12V353c0-.1.05-.13.14-.13h5.07c.13,0,.17,0,.17.18s0,.33,0,.49,0,.21-.21.21Z"/><path class="cls-15" d="M555.21,357.81H552.8c-.11,0-.15,0-.14-.14v-.57c0-.16,0-.18.19-.18h4.76c.17,0,.19,0,.19.18s0,.35,0,.53,0,.17-.17.17h-2.42Z"/><path class="cls-15" d="M543.9,354.22a2.56,2.56,0,0,0-2.17-1.35h-3c-.15,0-.16.07-.16.18v4.43h0v4.42c0,.16,0,.18.18.18h.62c.11,0,.16,0,.16-.16,0-1,0-2.07,0-3.11,0-.21,0-.22.22-.22a15.78,15.78,0,0,0,2.75-.09C544.15,358,544.68,355.66,543.9,354.22Zm-.9,2.71a.25.25,0,0,1,0,.07,1.23,1.23,0,0,1-.58.55,1.87,1.87,0,0,1-.92.18h-.13c-.4,0-.8,0-1.2,0h-.4c-.2,0-.21,0-.21-.23v-3.6a.49.49,0,0,1,0-.14s.06,0,.17,0h.14a14.31,14.31,0,0,1,2.07,0,1.79,1.79,0,0,1,.63.24,1.6,1.6,0,0,1,.46.5A2.51,2.51,0,0,1,543,356.93Z"/></g></g></svg>