<svg xmlns="http://www.w3.org/2000/svg" xmlns:xlink="http://www.w3.org/1999/xlink" viewBox="0 0 300 131.44"><defs><style>.cls-1{isolation:isolate;}.cls-2{fill:#00338d;}.cls-3{fill:none;}.cls-4{fill:#fae831;}.cls-5,.cls-7,.cls-8{mix-blend-mode:multiply;}.cls-5{fill:url(#linear-gradient);}.cls-6{fill:#009fda;}.cls-7{fill:url(#linear-gradient-2);}.cls-8{fill:url(#linear-gradient-3);}</style><linearGradient id="linear-gradient" x1="248.06" y1="57.6" x2="251.44" y2="75.96" gradientUnits="userSpaceOnUse"><stop offset="0" stop-color="#ffc5a6"/><stop offset="1" stop-color="#ff5800"/></linearGradient><linearGradient id="linear-gradient-2" x1="252.49" y1="69.76" x2="241.86" y2="33.62" gradientUnits="userSpaceOnUse"><stop offset="0" stop-color="#f2f5f9"/><stop offset="1" stop-color="#00338d"/></linearGradient><linearGradient id="linear-gradient-3" x1="246.19" y1="80.79" x2="218.28" y2="64.94" gradientUnits="userSpaceOnUse"><stop offset="0" stop-color="#ffd5bf"/><stop offset="1" stop-color="#ff5800"/></linearGradient></defs><g class="cls-1"><g id="Layer_1" data-name="Layer 1"><path class="cls-2" d="M126,52.66a9.53,9.53,0,0,0-5.77-1.5c-7.24,0-13.12,6.42-13.12,14.31,0,5.39,3.11,8.61,8.33,8.61a11.9,11.9,0,0,0,6.59-2l.08,0-.66-4.29-.18.17A8.36,8.36,0,0,1,116,70.07c-2.61,0-3.93-1.72-3.93-5.11,0-6.09,4-9.73,7.82-9.73a6.36,6.36,0,0,1,3.82,1l.11.07,2.25-3.58Z" transform="translate(0 -1)"/><path class="cls-2" d="M108.48,51.62a6,6,0,0,0-2.52-.46c-3.78,0-6.56,4.29-7.67,6.36.59-2.4,1-4.27,1.18-5.62l0-.16H94.74L90.55,73.55h4.93l.41-2.26c1.78-9.83,5.13-15.47,9.18-15.47a5.14,5.14,0,0,1,1.59.28l.12,0,1.82-4.46Z" transform="translate(0 -1)"/><polygon class="cls-2" points="189.83 72.55 194.76 72.55 198.95 50.74 194.03 50.74 189.83 72.55"/><polygon class="cls-2" points="207.93 40.2 201.74 72.55 206.64 72.55 212.84 40.2 207.93 40.2"/><path class="cls-2" d="M175.26,67.21a13,13,0,0,0-.26,2.4,4.55,4.55,0,0,0,.9,3c.8,1,2.1,1.44,4,1.44a14.58,14.58,0,0,0,4.91-.89l.06,0,1-4.92-.27.19A8.69,8.69,0,0,1,181.19,70a1,1,0,0,1-.84-.3,1.5,1.5,0,0,1-.25-1,12,12,0,0,1,.27-2.07l2.2-11.26h5.74l.65-3.67H183.3l1.38-7.05L179.45,46l-1.13,5.76h-3.89l-.69,3.67h3.85l-2.33,11.8" transform="translate(0 -1)"/><path class="cls-2" d="M165.4,51.16c-4.33,0-7,3.21-8.8,6.21.45-1.82,1-4.25,1.14-5.47v-.16H153l-4.18,21.81h4.93l.4-2.26c2.13-11.73,6.18-15.91,9.26-15.91a1.76,1.76,0,0,1,1.44.56c.5.6.59,1.71.27,3.4l-2.63,14.21h4.89l2.8-14.46c.54-2.77.22-5-.91-6.34A4.76,4.76,0,0,0,165.4,51.16Z" transform="translate(0 -1)"/><polygon class="cls-2" points="139.89 66.55 139.89 66.55 139.89 66.54 139.89 66.55"/><path class="cls-2" d="M147.2,52.24A21,21,0,0,0,140,51.16c-8.14,0-14.05,6.72-14.05,16,0,4.29,2.25,7,5.86,7,3.91,0,6.17-2.88,8-6.11a47.88,47.88,0,0,0-.88,5.43v.15h4.86v-.14a68.76,68.76,0,0,1,1.42-10.14l2.12-11Zm-5.66,4.61c-1.09,7.1-4.81,13.09-8.13,13.09-1.62,0-2.38-1.12-2.38-3.53C131,59.9,134.54,55,139.21,55a11.2,11.2,0,0,1,2.58.3C141.75,55.5,141.54,56.85,141.54,56.85Z" transform="translate(0 -1)"/><path class="cls-2" d="M50.7,64l-1.94,3.81s-.11.23-.2.44c-.05-.39-.13-1.14-.13-1.14L48.05,64,44.87,43.6H40L30.12,73.55H35L40.6,55.81c.56-1.77.92-3.09,1.11-3.91,0,.11,0,.25,0,.25l.46,3.46L45,73.55H49.9l9.86-18.08s1.56-3.14,1.75-3.51c-.11.8-.22,2-.34,3.8l-1.1,17.79h5.19L66.79,43.6h-5Z" transform="translate(0 -1)"/><polygon class="cls-2" points="61.57 50.51 61.57 50.51 61.57 50.51 61.57 50.51"/><path class="cls-2" d="M89.49,56.54c0-3.32-2.53-5.38-6.59-5.38-7.06,0-12.8,6.56-12.8,14.64,0,5.11,3.15,8.28,8.22,8.28a13.13,13.13,0,0,0,7.79-2.44l.07,0-.69-4.38-.19.15C83.7,68.69,81.2,70.1,79,70.1c-2.59,0-3.9-1.57-3.9-4.67v-.28C84.64,64,89.49,61.1,89.49,56.54ZM82.2,55c1.73,0,2.54.63,2.54,2,0,3.06-5,4.39-9.36,5C76.37,57.81,79.15,55,82.2,55Z" transform="translate(0 -1)"/><path class="cls-2" d="M197.52,42.72a2.71,2.71,0,1,0,2.88,2.7A2.8,2.8,0,0,0,197.52,42.72Z" transform="translate(0 -1)"/><rect class="cls-3" width="300" height="131.44"/><rect class="cls-3" x="30.12" y="30.16" width="239.76" height="71.16"/><path class="cls-3" d="M152.59,21.48l-1.94,3.84-.22.44c0-.4-.12-1.15-.12-1.15l-.37-3.09L146.74,1h-4.9L131.9,31.13h4.88l5.65-17.85c.57-1.77.93-3.1,1.13-3.93,0,.11,0,.25,0,.25l.46,3.48,2.84,18h4.91l9.92-18.19s1.57-3.15,1.75-3.53c-.1.8-.21,2-.33,3.82L162,31.13h5.21L168.78,1h-5Z" transform="translate(0 -1)"/><polygon class="cls-3" points="163.53 7.96 163.53 7.96 163.53 7.95 163.53 7.96"/><path class="cls-3" d="M152.59,122.79l-1.94,3.84s-.11.24-.22.44l-.12-1.14-.37-3.09-3.2-20.52h-4.9l-9.94,30.12h4.88l5.65-17.84c.57-1.78.93-3.11,1.13-3.93,0,.1,0,.25,0,.25l.46,3.47,2.84,18h4.91l9.92-18.19s1.57-3.15,1.75-3.53c-.1.81-.21,2-.33,3.82L162,132.44h5.21l1.55-30.12h-5Z" transform="translate(0 -1)"/><polygon class="cls-3" points="163.53 109.27 163.53 109.27 163.53 109.27 163.53 109.27"/><path class="cls-3" d="M279.53,70l-3.85-2-.44-.21,1.15-.12,3.09-.38L300,64.12V59.23l-30.12-9.95v4.89l17.84,5.65c1.77.57,3.1.93,3.93,1.12l-.25,0-3.48.46-18,2.83v4.92l18.19,9.92,3.53,1.75c-.81-.1-2.05-.22-3.82-.34l-17.9-1.1v5.21L300,86.17v-5Z" transform="translate(0 -1)"/><polygon class="cls-3" points="292.04 79.92 292.04 79.92 292.04 79.92 292.04 79.92"/><path class="cls-3" d="M20.47,65.47l3.84,1.94s.24.11.44.22l-1.14.12-3.09.38L0,71.33v4.89l30.12,10V81.28L12.28,75.63c-1.78-.56-3.11-.93-3.94-1.12l.26,0L12.07,74l18.05-2.83V66.27L11.93,56.35,8.41,54.6c.8.1,2,.22,3.82.34L30.12,56V50.83L0,49.28v5Z" transform="translate(0 -1)"/><path class="cls-3" d="M8,54.53Z" transform="translate(0 -1)"/><path class="cls-2" d="M142.11,84.94h5c3,0,5.09,1.25,5.09,3.89a4.43,4.43,0,0,1-3.74,4.51v0a3.44,3.44,0,0,1,3.11,3.42c0,3.79-3,5.51-7.33,5.51H139ZM144.49,100c3,0,4.2-1.14,4.2-3.18,0-1.49-1-2.43-3.11-2.43h-2.3l-1,5.61Zm1.38-7.77c2.35,0,3.47-1.18,3.47-2.93,0-1.38-.81-2.08-2.74-2.08h-2l-.91,5Z" transform="translate(0 -1)"/><path class="cls-2" d="M153.67,98.61c0-5.08,3-9.26,7.75-9.26a11.21,11.21,0,0,1,4,.65l-1.15,6.27a40.4,40.4,0,0,0-.78,6h-2.67a26.45,26.45,0,0,1,.53-3.44h-.06c-1,2-2.27,3.75-4.46,3.75C154.84,102.63,153.67,101.07,153.67,98.61Zm8.61-6,.13-.94a5.82,5.82,0,0,0-1.46-.18c-2.61,0-4.49,3-4.49,6.65,0,1.41.44,2.09,1.36,2.09C159.62,100.26,161.68,96.92,162.28,92.64Z" transform="translate(0 -1)"/><path class="cls-2" d="M169,89.69h2.61c-.11.78-.42,2.4-.68,3.44H171c.86-1.54,2.3-3.78,4.91-3.78,2.16,0,3.1,1.75,2.58,4.59l-1.54,8.38h-2.69l1.44-8.19c.29-1.62,0-2.35-1-2.35-1.67,0-3.89,2.4-5.07,9.31l-.21,1.23h-2.71Z" transform="translate(0 -1)"/><path class="cls-2" d="M180.34,97.65c0-4.88,3.47-8.3,7.25-8.3a5.11,5.11,0,0,1,3.19.86l-1.2,2.06a3.47,3.47,0,0,0-2.14-.6c-2.19,0-4.33,2.19-4.33,5.67,0,2.08.83,3,2.21,3a4,4,0,0,0,2.77-1.26l1.23,1.81a6.53,6.53,0,0,1-4.36,1.74C182.06,102.63,180.34,100.73,180.34,97.65Z" transform="translate(0 -1)"/><path class="cls-2" d="M190.77,97.39c0-4.18,2.9-8,6.84-8,3.16,0,4.8,2.37,4.8,5.25,0,4.38-2.87,8-6.83,8C192.29,102.63,190.77,100.08,190.77,97.39Zm8.9-2.64c0-2.09-.75-3.23-2.27-3.23-2.37,0-3.91,3.18-3.91,5.79,0,1.91.75,3.18,2.29,3.18C198.21,100.49,199.67,97.28,199.67,94.75Z" transform="translate(0 -1)"/><path class="cls-3" d="M212.84,41.21" transform="translate(0 -1)"/><path class="cls-4" d="M262.74,47.79c.73,6.74-5.34,13.44-15.29,18.28a30.5,30.5,0,0,1-15.55,22c21.16-.79,38-13.22,38-28.45,0-9.12-6-17.24-15.43-22.46C259.26,40,262.3,43.59,262.74,47.79Z" transform="translate(0 -1)"/><path class="cls-5" d="M262.74,47.79c.73,6.74-5.34,13.44-15.29,18.28a30.5,30.5,0,0,1-15.55,22c21.16-.79,38-13.22,38-28.45,0-9.12-6-17.24-15.43-22.46C259.26,40,262.3,43.59,262.74,47.79Z" transform="translate(0 -1)"/><path class="cls-6" d="M262.74,47.79c-.44-4.2-3.48-7.82-8.3-10.6-.92-.5-1.87-1-2.85-1.44a52.28,52.28,0,0,0-21.82-4.59q-2.62,0-5.16.24h-.05a.19.19,0,0,0-.17.18.18.18,0,0,0,.15.18h0a30.46,30.46,0,0,1,23.27,29.59,32,32,0,0,1-.36,4.72C257.4,61.23,263.47,54.53,262.74,47.79Z" transform="translate(0 -1)"/><path class="cls-7" d="M262.74,47.79c-.44-4.2-3.48-7.82-8.3-10.6-.92-.5-1.87-1-2.85-1.44a52.28,52.28,0,0,0-21.82-4.59q-2.62,0-5.16.24h-.05a.19.19,0,0,0-.17.18.18.18,0,0,0,.15.18h0a30.46,30.46,0,0,1,23.27,29.59,32,32,0,0,1-.36,4.72C257.4,61.23,263.47,54.53,262.74,47.79Z" transform="translate(0 -1)"/><path class="cls-4" d="M222.77,72.78c-2.11.22-5.91.42-6.26.44s-.49.45,0,.51a19.2,19.2,0,0,1,15.4,14.37h0a30.5,30.5,0,0,0,15.55-22A76,76,0,0,1,222.77,72.78Z" transform="translate(0 -1)"/><path class="cls-8" d="M222.77,72.78c-2.11.22-5.91.42-6.26.44s-.49.45,0,.51a19.2,19.2,0,0,1,15.4,14.37h0a30.5,30.5,0,0,0,15.55-22A76,76,0,0,1,222.77,72.78Z" transform="translate(0 -1)"/></g></g></svg>